<svg xmlns="http://www.w3.org/2000/svg" viewBox="0 0 760 322" width="760" height="322" role="img" aria-label="Hostwinds: what the monthly fee buys">
<rect width="760" height="322" fill="#0f172a" rx="10"/>
<text x="24" y="42" fill="#e2e8f0" font-family="system-ui,sans-serif" font-size="20" font-weight="600">Hostwinds: what the monthly fee buys</text>
<text x="24" y="64" fill="#94a3b8" font-family="system-ui,sans-serif" font-size="13">Bar length is the published monthly price; the number beside it is the RAM it includes.</text>
<text x="24" y="90" fill="#e2e8f0" font-family="system-ui,sans-serif" font-size="13">Hostwinds Unmanaged Linux VPS Hosting -...</text>
<rect x="324" y="78" width="190.8" height="18" fill="#38bdf8" rx="3"/>
<text x="522.8" y="91" fill="#94a3b8" font-family="ui-monospace,monospace" font-size="12">214.99 USD = 64 GB RAM</text>
<text x="24" y="124" fill="#e2e8f0" font-family="system-ui,sans-serif" font-size="13">Hostwinds Unmanaged Linux VPS Hosting -...</text>
<rect x="324" y="112" width="292.0" height="18" fill="#38bdf8" rx="3"/>
<text x="624.0" y="125" fill="#94a3b8" font-family="ui-monospace,monospace" font-size="12">328.99 USD = 96 GB RAM</text>
<text x="24" y="158" fill="#e2e8f0" font-family="system-ui,sans-serif" font-size="13">Hostwinds Unmanaged Linux VPS Hosting -...</text>
<rect x="324" y="146" width="110.9" height="18" fill="#38bdf8" rx="3"/>
<text x="442.9" y="159" fill="#94a3b8" font-family="ui-monospace,monospace" font-size="12">124.99 USD = 32 GB RAM</text>
<text x="24" y="192" fill="#e2e8f0" font-family="system-ui,sans-serif" font-size="13">Hostwinds Unmanaged Linux VPS Hosting -...</text>
<rect x="324" y="180" width="44.4" height="18" fill="#38bdf8" rx="3"/>
<text x="376.4" y="193" fill="#94a3b8" font-family="ui-monospace,monospace" font-size="12">49.99 USD = 12 GB RAM</text>
<text x="24" y="226" fill="#e2e8f0" font-family="system-ui,sans-serif" font-size="13">Hostwinds Unmanaged Linux VPS Hosting -...</text>
<rect x="324" y="214" width="16.9" height="18" fill="#38bdf8" rx="3"/>
<text x="348.9" y="227" fill="#94a3b8" font-family="ui-monospace,monospace" font-size="12">18.99 USD = 4 GB RAM</text>
<text x="24" y="260" fill="#e2e8f0" font-family="system-ui,sans-serif" font-size="13">Hostwinds Unmanaged Linux VPS Hosting -...</text>
<rect x="324" y="248" width="68.3" height="18" fill="#38bdf8" rx="3"/>
<text x="400.3" y="261" fill="#94a3b8" font-family="ui-monospace,monospace" font-size="12">76.99 USD = 16 GB RAM</text>
</svg>